<svg width="40" height="40" viewBox="0 0 40 40" fill="none" xmlns="http://www.w3.org/2000/svg">
<rect width="40" height="40" rx="20" fill="#E0EAFF"/>
<path d="M27.3728 16.4694C27.8002 17.014 27.3288 17.7082 26.6365 17.7082H12.6666C12.1143 17.7082 11.6666 17.2605 11.6666 16.7082V15.3498C11.6666 13.3165 13.3166 11.6665 15.35 11.6665H17.2833C18.6416 11.6665 19.0666 12.1082 19.6083 12.8332L20.775 14.3832C21.0333 14.7248 21.0666 14.7665 21.55 14.7665H23.875C25.2938 14.7665 26.5588 15.432 27.3728 16.4694Z" fill="#444CE7"/>
<path d="M28.32 19.9546C28.3181 19.4037 27.871 18.958 27.32 18.958L12.6666 18.9583C12.1143 18.9583 11.6666 19.406 11.6666 19.9583V23.875C11.6666 26.3333 13.6666 28.3333 16.125 28.3333H23.875C26.3333 28.3333 28.3333 26.3333 28.3333 23.875L28.32 19.9546ZM22.0833 23.9583H20.675V25.4166C20.675 25.7583 20.3916 26.0416 20.05 26.0416C19.7 26.0416 19.425 25.7583 19.425 25.4166V23.9583H17.9166C17.575 23.9583 17.2916 23.675 17.2916 23.3333C17.2916 22.9916 17.575 22.7083 17.9166 22.7083H19.425V21.25C19.425 20.9083 19.7 20.625 20.05 20.625C20.3916 20.625 20.675 20.9083 20.675 21.25V22.7083H22.0833C22.425 22.7083 22.7083 22.9916 22.7083 23.3333C22.7083 23.675 22.425 23.9583 22.0833 23.9583Z" fill="#444CE7"/>
</svg>
