<svg width="750" height="94" viewBox="0 0 750 94" fill="none" xmlns="http://www.w3.org/2000/svg">
<g filter="url(#filter0_ddd_13_5760)">
<rect x="20" y="24" width="40" height="40" rx="5" fill="#1570EF"/>
<path d="M44 38L46.29 40.29L41.41 45.17L37.41 41.17L30 48.59L31.41 50L37.41 44L41.41 48L47.71 41.71L50 44V38H44Z" fill="white"/>
</g>
<path d="M77.8295 26.4545C77.7784 26.0227 77.571 25.6875 77.2074 25.4489C76.8438 25.2102 76.3977 25.0909 75.8693 25.0909C75.483 25.0909 75.1449 25.1534 74.8551 25.2784C74.5682 25.4034 74.3438 25.5753 74.1818 25.794C74.0227 26.0128 73.9432 26.2614 73.9432 26.5398C73.9432 26.7727 73.9986 26.973 74.1094 27.1406C74.223 27.3054 74.3679 27.4432 74.544 27.554C74.7202 27.6619 74.9048 27.7514 75.098 27.8224C75.2912 27.8906 75.4688 27.946 75.6307 27.9886L76.517 28.2273C76.7443 28.2869 76.9972 28.3693 77.2756 28.4744C77.5568 28.5795 77.8253 28.723 78.081 28.9048C78.3395 29.0838 78.5526 29.3139 78.7202 29.5952C78.8878 29.8764 78.9716 30.2216 78.9716 30.6307C78.9716 31.1023 78.848 31.5284 78.6009 31.9091C78.3565 32.2898 77.9986 32.5923 77.527 32.8168C77.0582 33.0412 76.4886 33.1534 75.8182 33.1534C75.1932 33.1534 74.652 33.0526 74.1946 32.8509C73.7401 32.6491 73.3821 32.3679 73.1207 32.0071C72.8622 31.6463 72.7159 31.2273 72.6818 30.75H73.7727C73.8011 31.0795 73.9119 31.3523 74.1051 31.5682C74.3011 31.7812 74.5483 31.9403 74.8466 32.0455C75.1477 32.1477 75.4716 32.1989 75.8182 32.1989C76.2216 32.1989 76.5838 32.1335 76.9048 32.0028C77.2259 31.8693 77.4801 31.6847 77.6676 31.4489C77.8551 31.2102 77.9489 30.9318 77.9489 30.6136C77.9489 30.3239 77.8679 30.0881 77.706 29.9062C77.544 29.7244 77.331 29.5767 77.0668 29.4631C76.8026 29.3494 76.517 29.25 76.2102 29.1648L75.1364 28.858C74.4545 28.6619 73.9148 28.3821 73.517 28.0185C73.1193 27.6548 72.9205 27.179 72.9205 26.5909C72.9205 26.1023 73.0526 25.6761 73.3168 25.3125C73.5838 24.946 73.9418 24.6619 74.3906 24.4602C74.8423 24.2557 75.3466 24.1534 75.9034 24.1534C76.4659 24.1534 76.9659 24.2543 77.4034 24.456C77.8409 24.6548 78.1875 24.9276 78.4432 25.2741C78.7017 25.6207 78.8381 26.0142 78.8523 26.4545H77.8295ZM82.4989 33.1534C82.0842 33.1534 81.7077 33.0753 81.3697 32.919C81.0316 32.7599 80.7631 32.5312 80.5643 32.233C80.3654 31.9318 80.266 31.5682 80.266 31.142C80.266 30.767 80.3398 30.4631 80.4876 30.2301C80.6353 29.9943 80.8327 29.8097 81.0799 29.6761C81.3271 29.5426 81.5998 29.4432 81.8981 29.3778C82.1992 29.3097 82.5018 29.2557 82.8058 29.2159C83.2035 29.1648 83.5259 29.1264 83.7731 29.1009C84.0231 29.0724 84.2049 29.0256 84.3185 28.9602C84.435 28.8949 84.4933 28.7812 84.4933 28.6193V28.5852C84.4933 28.1648 84.3782 27.8381 84.1481 27.6051C83.9208 27.3722 83.5756 27.2557 83.1126 27.2557C82.6325 27.2557 82.256 27.3608 81.9833 27.571C81.7106 27.7812 81.5188 28.0057 81.408 28.2443L80.4535 27.9034C80.6239 27.5057 80.8512 27.196 81.1353 26.9744C81.4222 26.75 81.7347 26.5937 82.0728 26.5057C82.4137 26.4148 82.7489 26.3693 83.0785 26.3693C83.2887 26.3693 83.5302 26.3949 83.8029 26.446C84.0785 26.4943 84.3441 26.5952 84.5998 26.7486C84.8583 26.902 85.0728 27.1335 85.2433 27.4432C85.4137 27.7528 85.4989 28.1676 85.4989 28.6875V33H84.4933V32.1136H84.4421C84.3739 32.2557 84.2603 32.4077 84.1012 32.5696C83.9421 32.7315 83.7305 32.8693 83.4663 32.983C83.2021 33.0966 82.8796 33.1534 82.4989 33.1534ZM82.6523 32.25C83.0501 32.25 83.3853 32.1719 83.658 32.0156C83.9336 31.8594 84.141 31.6577 84.2802 31.4105C84.4222 31.1634 84.4933 30.9034 84.4933 30.6307V29.7102C84.4506 29.7614 84.3569 29.8082 84.212 29.8509C84.07 29.8906 83.9052 29.9261 83.7177 29.9574C83.533 29.9858 83.3526 30.0114 83.1765 30.0341C83.0032 30.054 82.8626 30.071 82.7546 30.0852C82.4933 30.1193 82.2489 30.1747 82.0217 30.2514C81.7972 30.3253 81.6154 30.4375 81.4762 30.5881C81.3398 30.7358 81.2717 30.9375 81.2717 31.1932C81.2717 31.5426 81.4009 31.8068 81.6594 31.9858C81.9208 32.1619 82.2518 32.25 82.6523 32.25ZM88.3402 24.2727V33H87.3345V24.2727H88.3402ZM92.9265 33.1364C92.2958 33.1364 91.7518 32.9972 91.2944 32.7188C90.8398 32.4375 90.489 32.0455 90.2418 31.5426C89.9975 31.0369 89.8754 30.4489 89.8754 29.7784C89.8754 29.108 89.9975 28.517 90.2418 28.0057C90.489 27.4915 90.8327 27.0909 91.2731 26.804C91.7163 26.5142 92.2333 26.3693 92.8242 26.3693C93.1651 26.3693 93.5018 26.4261 93.8342 26.5398C94.1665 26.6534 94.4691 26.8381 94.7418 27.0938C95.0146 27.3466 95.2319 27.6818 95.3938 28.0994C95.5558 28.517 95.6367 29.0312 95.6367 29.642V30.0682H90.5913V29.1989H94.614C94.614 28.8295 94.5401 28.5 94.3924 28.2102C94.2475 27.9205 94.0401 27.6918 93.7702 27.5241C93.5032 27.3565 93.1879 27.2727 92.8242 27.2727C92.4237 27.2727 92.0771 27.3722 91.7844 27.571C91.4947 27.767 91.2717 28.0227 91.1154 28.3381C90.9592 28.6534 90.881 28.9915 90.881 29.3523V29.9318C90.881 30.4261 90.9663 30.8452 91.1367 31.1889C91.31 31.5298 91.5501 31.7898 91.8569 31.9688C92.1637 32.1449 92.5202 32.233 92.9265 32.233C93.1907 32.233 93.4293 32.196 93.6424 32.1222C93.8583 32.0455 94.0444 31.9318 94.2006 31.7812C94.3569 31.6278 94.4776 31.4375 94.5629 31.2102L95.5344 31.483C95.4322 31.8125 95.2603 32.1023 95.0188 32.3523C94.7773 32.5994 94.479 32.7926 94.1239 32.9318C93.7688 33.0682 93.3697 33.1364 92.9265 33.1364ZM101.803 27.9205L100.9 28.1761C100.843 28.0256 100.759 27.8793 100.648 27.7372C100.54 27.5923 100.392 27.473 100.205 27.3793C100.017 27.2855 99.7773 27.2386 99.4847 27.2386C99.0842 27.2386 98.7504 27.331 98.4833 27.5156C98.2191 27.6974 98.087 27.929 98.087 28.2102C98.087 28.4602 98.1779 28.6577 98.3597 28.8026C98.5415 28.9474 98.8256 29.0682 99.212 29.1648L100.184 29.4034C100.769 29.5455 101.205 29.7628 101.492 30.0554C101.779 30.3452 101.922 30.7187 101.922 31.1761C101.922 31.5511 101.814 31.8864 101.598 32.1818C101.385 32.4773 101.087 32.7102 100.703 32.8807C100.32 33.0511 99.8739 33.1364 99.3654 33.1364C98.6978 33.1364 98.1452 32.9915 97.7077 32.7017C97.2702 32.4119 96.9933 31.9886 96.8768 31.4318L97.8313 31.1932C97.9222 31.5455 98.0941 31.8097 98.3469 31.9858C98.6026 32.1619 98.9364 32.25 99.3484 32.25C99.8171 32.25 100.189 32.1506 100.465 31.9517C100.743 31.75 100.882 31.5085 100.882 31.2273C100.882 31 100.803 30.8097 100.644 30.6562C100.485 30.5 100.24 30.3835 99.9109 30.3068L98.82 30.0511C98.2205 29.9091 97.7802 29.6889 97.4989 29.3906C97.2205 29.0895 97.0813 28.7131 97.0813 28.2614C97.0813 27.892 97.185 27.5653 97.3924 27.2812C97.6026 26.9972 97.8881 26.7741 98.2489 26.6122C98.6126 26.4503 99.0245 26.3693 99.4847 26.3693C100.132 26.3693 100.641 26.5114 101.01 26.7955C101.382 27.0795 101.647 27.4545 101.803 27.9205Z" fill="#667085"/>
<path d="M73.3991 60V58.4091L78.321 53.3097C78.8466 52.7557 79.2798 52.2704 79.6207 51.8537C79.9664 51.4323 80.2244 51.0322 80.3949 50.6534C80.5653 50.2746 80.6506 49.8722 80.6506 49.446C80.6506 48.9631 80.5369 48.5464 80.3097 48.196C80.0824 47.8409 79.7723 47.5687 79.3793 47.3793C78.9863 47.1851 78.5436 47.0881 78.0511 47.0881C77.5303 47.0881 77.0758 47.1946 76.6875 47.4077C76.2992 47.6207 76.0009 47.9214 75.7926 48.3097C75.5843 48.6979 75.4801 49.1525 75.4801 49.6733H73.3849C73.3849 48.7879 73.5885 48.0137 73.9957 47.3509C74.4029 46.688 74.9616 46.1742 75.6719 45.8097C76.3821 45.4403 77.1894 45.2557 78.0938 45.2557C79.0076 45.2557 79.8125 45.438 80.5085 45.8026C81.2093 46.1624 81.7562 46.6548 82.1491 47.2798C82.5421 47.9001 82.7386 48.6009 82.7386 49.3821C82.7386 49.9219 82.6368 50.4498 82.4332 50.9659C82.2344 51.482 81.8864 52.0573 81.3892 52.6918C80.892 53.3215 80.2008 54.0862 79.3153 54.9858L76.4247 58.0114V58.1179H82.973V60H73.3991ZM85.0469 57.1591V55.3835L91.3324 45.4545H92.7315V48.0682H91.8438L87.348 55.1847V55.2983H95.9631V57.1591H85.0469ZM91.9432 60V56.6193L91.9574 55.8097V45.4545H94.0384V60H91.9432ZM103.239 60.1989C102.349 60.1989 101.549 60.0284 100.839 59.6875C100.133 59.3419 99.5698 58.8684 99.1484 58.267C98.727 57.6657 98.5021 56.9792 98.4737 56.2074H100.604C100.656 56.8324 100.933 57.3461 101.435 57.7486C101.937 58.151 102.539 58.3523 103.239 58.3523C103.798 58.3523 104.293 58.2244 104.724 57.9688C105.159 57.7083 105.5 57.3509 105.746 56.8963C105.997 56.4418 106.123 55.9233 106.123 55.3409C106.123 54.7491 105.995 54.2211 105.739 53.7571C105.484 53.2931 105.131 52.9285 104.681 52.6634C104.236 52.3982 103.725 52.2633 103.147 52.2585C102.707 52.2585 102.264 52.3343 101.819 52.4858C101.374 52.6373 101.014 52.8362 100.739 53.0824L98.7294 52.7841L99.5462 45.4545H107.543V47.3366H101.371L100.91 51.4062H100.995C101.279 51.1316 101.656 50.902 102.124 50.7173C102.598 50.5327 103.104 50.4403 103.644 50.4403C104.53 50.4403 105.318 50.651 106.009 51.0724C106.705 51.4938 107.252 52.0691 107.65 52.7983C108.052 53.5227 108.251 54.3561 108.246 55.2983C108.251 56.2405 108.038 57.081 107.607 57.8196C107.181 58.5582 106.589 59.1406 105.832 59.5668C105.079 59.9882 104.215 60.1989 103.239 60.1989ZM112.822 56.2997L112.808 53.7074H113.177L117.524 49.0909H120.066L115.109 54.3466H114.775L112.822 56.2997ZM110.869 60V45.4545H112.993V60H110.869ZM117.758 60L113.852 54.8153L115.315 53.331L120.365 60H117.758Z" fill="black"/>
<g filter="url(#filter1_ddd_13_5760)">
<rect x="197.5" y="24" width="40" height="40" rx="5" fill="#56CA00"/>
<path d="M217.5 37.9C218.66 37.9 219.6 38.84 219.6 40C219.6 41.16 218.66 42.1 217.5 42.1C216.34 42.1 215.4 41.16 215.4 40C215.4 38.84 216.34 37.9 217.5 37.9ZM217.5 46.9C220.47 46.9 223.6 48.36 223.6 49V50.1H211.4V49C211.4 48.36 214.53 46.9 217.5 46.9ZM217.5 36C215.29 36 213.5 37.79 213.5 40C213.5 42.21 215.29 44 217.5 44C219.71 44 221.5 42.21 221.5 40C221.5 37.79 219.71 36 217.5 36ZM217.5 45C214.83 45 209.5 46.34 209.5 49V52H225.5V49C225.5 46.34 220.17 45 217.5 45Z" fill="white"/>
</g>
<path d="M257.58 27H256.523C256.46 26.696 256.351 26.429 256.195 26.1989C256.041 25.9688 255.854 25.7756 255.632 25.6193C255.413 25.4602 255.17 25.3409 254.903 25.2614C254.636 25.1818 254.358 25.142 254.068 25.142C253.54 25.142 253.061 25.2756 252.632 25.5426C252.206 25.8097 251.866 26.2031 251.614 26.723C251.364 27.2429 251.239 27.8807 251.239 28.6364C251.239 29.392 251.364 30.0298 251.614 30.5497C251.866 31.0696 252.206 31.4631 252.632 31.7301C253.061 31.9972 253.54 32.1307 254.068 32.1307C254.358 32.1307 254.636 32.0909 254.903 32.0114C255.17 31.9318 255.413 31.8139 255.632 31.6577C255.854 31.4986 256.041 31.304 256.195 31.0739C256.351 30.8409 256.46 30.5739 256.523 30.2727H257.58C257.5 30.7187 257.355 31.1179 257.145 31.4702C256.935 31.8224 256.673 32.1222 256.361 32.3693C256.048 32.6136 255.697 32.7997 255.308 32.9276C254.922 33.0554 254.509 33.1193 254.068 33.1193C253.324 33.1193 252.662 32.9375 252.082 32.5739C251.503 32.2102 251.047 31.6932 250.714 31.0227C250.382 30.3523 250.216 29.5568 250.216 28.6364C250.216 27.7159 250.382 26.9205 250.714 26.25C251.047 25.5795 251.503 25.0625 252.082 24.6989C252.662 24.3352 253.324 24.1534 254.068 24.1534C254.509 24.1534 254.922 24.2173 255.308 24.3452C255.697 24.473 256.048 24.6605 256.361 24.9077C256.673 25.152 256.935 25.4503 257.145 25.8026C257.355 26.152 257.5 26.5511 257.58 27ZM263.276 30.3239V26.4545H264.282V33H263.276V31.892H263.208C263.054 32.2244 262.816 32.5071 262.492 32.7401C262.168 32.9702 261.759 33.0852 261.265 33.0852C260.855 33.0852 260.492 32.9957 260.174 32.8168C259.855 32.6349 259.605 32.3622 259.424 31.9986C259.242 31.6321 259.151 31.1705 259.151 30.6136V26.4545H260.157V30.5455C260.157 31.0227 260.29 31.4034 260.557 31.6875C260.827 31.9716 261.171 32.1136 261.588 32.1136C261.838 32.1136 262.093 32.0497 262.351 31.9219C262.613 31.794 262.831 31.598 263.007 31.3338C263.186 31.0696 263.276 30.733 263.276 30.3239ZM270.76 27.9205L269.857 28.1761C269.8 28.0256 269.716 27.8793 269.605 27.7372C269.497 27.5923 269.349 27.473 269.162 27.3793C268.974 27.2855 268.734 27.2386 268.442 27.2386C268.041 27.2386 267.707 27.331 267.44 27.5156C267.176 27.6974 267.044 27.929 267.044 28.2102C267.044 28.4602 267.135 28.6577 267.317 28.8026C267.499 28.9474 267.783 29.0682 268.169 29.1648L269.141 29.4034C269.726 29.5455 270.162 29.7628 270.449 30.0554C270.736 30.3452 270.879 30.7187 270.879 31.1761C270.879 31.5511 270.771 31.8864 270.555 32.1818C270.342 32.4773 270.044 32.7102 269.661 32.8807C269.277 33.0511 268.831 33.1364 268.322 33.1364C267.655 33.1364 267.102 32.9915 266.665 32.7017C266.227 32.4119 265.95 31.9886 265.834 31.4318L266.788 31.1932C266.879 31.5455 267.051 31.8097 267.304 31.9858C267.56 32.1619 267.893 32.25 268.305 32.25C268.774 32.25 269.146 32.1506 269.422 31.9517C269.7 31.75 269.839 31.5085 269.839 31.2273C269.839 31 269.76 30.8097 269.601 30.6562C269.442 30.5 269.197 30.3835 268.868 30.3068L267.777 30.0511C267.178 29.9091 266.737 29.6889 266.456 29.3906C266.178 29.0895 266.038 28.7131 266.038 28.2614C266.038 27.892 266.142 27.5653 266.349 27.2812C266.56 26.9972 266.845 26.7741 267.206 26.6122C267.57 26.4503 267.982 26.3693 268.442 26.3693C269.089 26.3693 269.598 26.5114 269.967 26.7955C270.339 27.0795 270.604 27.4545 270.76 27.9205ZM275.24 26.4545V27.3068H271.848V26.4545H275.24ZM272.836 24.8864H273.842V31.125C273.842 31.4091 273.883 31.6222 273.966 31.7642C274.051 31.9034 274.159 31.9972 274.289 32.0455C274.423 32.0909 274.564 32.1136 274.711 32.1136C274.822 32.1136 274.913 32.108 274.984 32.0966C275.055 32.0824 275.112 32.071 275.154 32.0625L275.359 32.9659C275.291 32.9915 275.196 33.017 275.074 33.0426C274.951 33.071 274.797 33.0852 274.609 33.0852C274.325 33.0852 274.047 33.0241 273.774 32.902C273.504 32.7798 273.279 32.5938 273.1 32.3438C272.924 32.0938 272.836 31.7784 272.836 31.3977V24.8864ZM279.341 33.1364C278.75 33.1364 278.232 32.9957 277.786 32.7145C277.343 32.4332 276.996 32.0398 276.746 31.5341C276.499 31.0284 276.375 30.4375 276.375 29.7614C276.375 29.0795 276.499 28.4844 276.746 27.9759C276.996 27.4673 277.343 27.0724 277.786 26.7912C278.232 26.5099 278.75 26.3693 279.341 26.3693C279.932 26.3693 280.449 26.5099 280.892 26.7912C281.338 27.0724 281.685 27.4673 281.932 27.9759C282.182 28.4844 282.307 29.0795 282.307 29.7614C282.307 30.4375 282.182 31.0284 281.932 31.5341C281.685 32.0398 281.338 32.4332 280.892 32.7145C280.449 32.9957 279.932 33.1364 279.341 33.1364ZM279.341 32.233C279.79 32.233 280.159 32.1179 280.449 31.8878C280.739 31.6577 280.953 31.3551 281.093 30.9801C281.232 30.6051 281.301 30.1989 281.301 29.7614C281.301 29.3239 281.232 28.9162 281.093 28.5384C280.953 28.1605 280.739 27.8551 280.449 27.6222C280.159 27.3892 279.79 27.2727 279.341 27.2727C278.892 27.2727 278.523 27.3892 278.233 27.6222C277.944 27.8551 277.729 28.1605 277.59 28.5384C277.451 28.9162 277.381 29.3239 277.381 29.7614C277.381 30.1989 277.451 30.6051 277.59 30.9801C277.729 31.3551 277.944 31.6577 278.233 31.8878C278.523 32.1179 278.892 32.233 279.341 32.233ZM283.842 33V26.4545H284.814V27.4773H284.899C285.036 27.1278 285.256 26.8565 285.56 26.6634C285.864 26.4673 286.229 26.3693 286.655 26.3693C287.087 26.3693 287.446 26.4673 287.733 26.6634C288.023 26.8565 288.249 27.1278 288.411 27.4773H288.479C288.646 27.1392 288.898 26.8707 289.233 26.6719C289.568 26.4702 289.97 26.3693 290.439 26.3693C291.024 26.3693 291.503 26.5526 291.875 26.919C292.247 27.2827 292.433 27.8494 292.433 28.6193V33H291.428V28.6193C291.428 28.1364 291.295 27.7912 291.031 27.5838C290.767 27.3764 290.456 27.2727 290.098 27.2727C289.638 27.2727 289.281 27.4119 289.028 27.6903C288.776 27.9659 288.649 28.3153 288.649 28.7386V33H287.626V28.517C287.626 28.1449 287.506 27.8452 287.264 27.6179C287.023 27.3878 286.712 27.2727 286.331 27.2727C286.07 27.2727 285.825 27.3423 285.598 27.4815C285.374 27.6207 285.192 27.8139 285.053 28.0611C284.916 28.3054 284.848 28.5881 284.848 28.9091V33H283.842ZM297.016 33.1364C296.386 33.1364 295.842 32.9972 295.384 32.7188C294.93 32.4375 294.579 32.0455 294.332 31.5426C294.087 31.0369 293.965 30.4489 293.965 29.7784C293.965 29.108 294.087 28.517 294.332 28.0057C294.579 27.4915 294.923 27.0909 295.363 26.804C295.806 26.5142 296.323 26.3693 296.914 26.3693C297.255 26.3693 297.592 26.4261 297.924 26.5398C298.256 26.6534 298.559 26.8381 298.832 27.0938C299.104 27.3466 299.322 27.6818 299.484 28.0994C299.646 28.517 299.727 29.0312 299.727 29.642V30.0682H294.681V29.1989H298.704C298.704 28.8295 298.63 28.5 298.482 28.2102C298.337 27.9205 298.13 27.6918 297.86 27.5241C297.593 27.3565 297.278 27.2727 296.914 27.2727C296.513 27.2727 296.167 27.3722 295.874 27.571C295.585 27.767 295.362 28.0227 295.205 28.3381C295.049 28.6534 294.971 28.9915 294.971 29.3523V29.9318C294.971 30.4261 295.056 30.8452 295.227 31.1889C295.4 31.5298 295.64 31.7898 295.947 31.9688C296.254 32.1449 296.61 32.233 297.016 32.233C297.281 32.233 297.519 32.196 297.732 32.1222C297.948 32.0455 298.134 31.9318 298.29 31.7812C298.447 31.6278 298.567 31.4375 298.653 31.2102L299.624 31.483C299.522 31.8125 299.35 32.1023 299.109 32.3523C298.867 32.5994 298.569 32.7926 298.214 32.9318C297.859 33.0682 297.46 33.1364 297.016 33.1364ZM301.256 33V26.4545H302.228V27.4432H302.296C302.415 27.1193 302.631 26.8565 302.944 26.6548C303.256 26.4531 303.609 26.3523 304.001 26.3523C304.075 26.3523 304.167 26.3537 304.278 26.3565C304.388 26.3594 304.472 26.3636 304.529 26.3693V27.392C304.495 27.3835 304.417 27.3707 304.295 27.3537C304.175 27.3338 304.049 27.3239 303.915 27.3239C303.597 27.3239 303.313 27.3906 303.063 27.5241C302.816 27.6548 302.62 27.8366 302.475 28.0696C302.333 28.2997 302.262 28.5625 302.262 28.858V33H301.256ZM310.358 27.9205L309.454 28.1761C309.397 28.0256 309.314 27.8793 309.203 27.7372C309.095 27.5923 308.947 27.473 308.76 27.3793C308.572 27.2855 308.332 27.2386 308.039 27.2386C307.639 27.2386 307.305 27.331 307.038 27.5156C306.774 27.6974 306.642 27.929 306.642 28.2102C306.642 28.4602 306.733 28.6577 306.914 28.8026C307.096 28.9474 307.38 29.0682 307.767 29.1648L308.738 29.4034C309.324 29.5455 309.76 29.7628 310.047 30.0554C310.333 30.3452 310.477 30.7187 310.477 31.1761C310.477 31.5511 310.369 31.8864 310.153 32.1818C309.94 32.4773 309.642 32.7102 309.258 32.8807C308.875 33.0511 308.429 33.1364 307.92 33.1364C307.252 33.1364 306.7 32.9915 306.262 32.7017C305.825 32.4119 305.548 31.9886 305.431 31.4318L306.386 31.1932C306.477 31.5455 306.649 31.8097 306.902 31.9858C307.157 32.1619 307.491 32.25 307.903 32.25C308.372 32.25 308.744 32.1506 309.02 31.9517C309.298 31.75 309.437 31.5085 309.437 31.2273C309.437 31 309.358 30.8097 309.199 30.6562C309.039 30.5 308.795 30.3835 308.466 30.3068L307.375 30.0511C306.775 29.9091 306.335 29.6889 306.054 29.3906C305.775 29.0895 305.636 28.7131 305.636 28.2614C305.636 27.892 305.74 27.5653 305.947 27.2812C306.157 26.9972 306.443 26.7741 306.804 26.6122C307.167 26.4503 307.579 26.3693 308.039 26.3693C308.687 26.3693 309.196 26.5114 309.565 26.7955C309.937 27.0795 310.201 27.4545 310.358 27.9205Z" fill="#667085"/>
<path d="M256.418 45.4545V60H254.216V47.6562H254.131L250.651 49.929V47.8267L254.28 45.4545H256.418ZM260.352 60V58.4091L265.274 53.3097C265.8 52.7557 266.233 52.2704 266.574 51.8537C266.92 51.4323 267.178 51.0322 267.348 50.6534C267.518 50.2746 267.604 49.8722 267.604 49.446C267.604 48.9631 267.49 48.5464 267.263 48.196C267.036 47.8409 266.725 47.5687 266.332 47.3793C265.939 47.1851 265.497 47.0881 265.004 47.0881C264.483 47.0881 264.029 47.1946 263.641 47.4077C263.252 47.6207 262.954 47.9214 262.746 48.3097C262.537 48.6979 262.433 49.1525 262.433 49.6733H260.338C260.338 48.7879 260.542 48.0137 260.949 47.3509C261.356 46.688 261.915 46.1742 262.625 45.8097C263.335 45.4403 264.143 45.2557 265.047 45.2557C265.961 45.2557 266.766 45.438 267.462 45.8026C268.162 46.1624 268.709 46.6548 269.102 47.2798C269.495 47.9001 269.692 48.6009 269.692 49.3821C269.692 49.9219 269.59 50.4498 269.386 50.9659C269.188 51.482 268.839 52.0573 268.342 52.6918C267.845 53.3215 267.154 54.0862 266.268 54.9858L263.378 58.0114V58.1179H269.926V60H260.352ZM274.045 60.1349C273.657 60.1349 273.323 59.9976 273.044 59.723C272.765 59.4437 272.625 59.1075 272.625 58.7145C272.625 58.3262 272.765 57.9948 273.044 57.7202C273.323 57.4408 273.657 57.3011 274.045 57.3011C274.434 57.3011 274.768 57.4408 275.047 57.7202C275.326 57.9948 275.466 58.3262 275.466 58.7145C275.466 58.9749 275.4 59.214 275.267 59.4318C275.139 59.6449 274.969 59.8153 274.756 59.9432C274.543 60.071 274.306 60.1349 274.045 60.1349ZM282.849 60.1989C281.959 60.1989 281.158 60.0284 280.448 59.6875C279.743 59.3419 279.179 58.8684 278.758 58.267C278.336 57.6657 278.112 56.9792 278.083 56.2074H280.214C280.266 56.8324 280.543 57.3461 281.045 57.7486C281.547 58.151 282.148 58.3523 282.849 58.3523C283.407 58.3523 283.902 58.2244 284.333 57.9688C284.769 57.7083 285.11 57.3509 285.356 56.8963C285.607 56.4418 285.732 55.9233 285.732 55.3409C285.732 54.7491 285.604 54.2211 285.349 53.7571C285.093 53.2931 284.74 52.9285 284.29 52.6634C283.845 52.3982 283.334 52.2633 282.756 52.2585C282.316 52.2585 281.873 52.3343 281.428 52.4858C280.983 52.6373 280.623 52.8362 280.349 53.0824L278.339 52.7841L279.156 45.4545H287.153V47.3366H280.981L280.519 51.4062H280.604C280.888 51.1316 281.265 50.902 281.734 50.7173C282.207 50.5327 282.714 50.4403 283.254 50.4403C284.139 50.4403 284.927 50.651 285.619 51.0724C286.315 51.4938 286.862 52.0691 287.259 52.7983C287.662 53.5227 287.861 54.3561 287.856 55.2983C287.861 56.2405 287.647 57.081 287.217 57.8196C286.79 58.5582 286.199 59.1406 285.441 59.5668C284.688 59.9882 283.824 60.1989 282.849 60.1989ZM292.431 56.2997L292.417 53.7074H292.787L297.133 49.0909H299.676L294.718 54.3466H294.385L292.431 56.2997ZM290.478 60V45.4545H292.602V60H290.478ZM297.368 60L293.461 54.8153L294.924 53.331L299.974 60H297.368Z" fill="black"/>
<g filter="url(#filter2_ddd_13_5760)">
<rect x="375" y="24" width="40" height="40" rx="5" fill="#FFB400"/>
<path d="M387 38H405V36H387C385.9 36 385 36.9 385 38V49H383V52H397V49H387V38ZM406 40H400C399.45 40 399 40.45 399 41V51C399 51.55 399.45 52 400 52H406C406.55 52 407 51.55 407 51V41C407 40.45 406.55 40 406 40ZM405 49H401V42H405V49Z" fill="white"/>
</g>
<path d="M428.057 33V24.2727H431.006C431.69 24.2727 432.25 24.3963 432.685 24.6435C433.122 24.8878 433.446 25.2188 433.656 25.6364C433.866 26.054 433.972 26.5199 433.972 27.0341C433.972 27.5483 433.866 28.0156 433.656 28.4361C433.449 28.8565 433.128 29.1918 432.693 29.4418C432.259 29.6889 431.702 29.8125 431.023 29.8125H428.909V28.875H430.989C431.457 28.875 431.834 28.794 432.118 28.6321C432.402 28.4702 432.608 28.2514 432.736 27.9759C432.866 27.6974 432.932 27.3835 432.932 27.0341C432.932 26.6847 432.866 26.3722 432.736 26.0966C432.608 25.821 432.401 25.6051 432.114 25.4489C431.827 25.2898 431.446 25.2102 430.972 25.2102H429.114V33H428.057ZM435.538 33V26.4545H436.509V27.4432H436.577C436.697 27.1193 436.913 26.8565 437.225 26.6548C437.538 26.4531 437.89 26.3523 438.282 26.3523C438.356 26.3523 438.448 26.3537 438.559 26.3565C438.67 26.3594 438.754 26.3636 438.81 26.3693V27.392C438.776 27.3835 438.698 27.3707 438.576 27.3537C438.457 27.3338 438.33 27.3239 438.197 27.3239C437.879 27.3239 437.594 27.3906 437.344 27.5241C437.097 27.6548 436.901 27.8366 436.756 28.0696C436.614 28.2997 436.543 28.5625 436.543 28.858V33H435.538ZM442.462 33.1364C441.871 33.1364 441.353 32.9957 440.907 32.7145C440.464 32.4332 440.117 32.0398 439.867 31.5341C439.62 31.0284 439.496 30.4375 439.496 29.7614C439.496 29.0795 439.62 28.4844 439.867 27.9759C440.117 27.4673 440.464 27.0724 440.907 26.7912C441.353 26.5099 441.871 26.3693 442.462 26.3693C443.053 26.3693 443.57 26.5099 444.013 26.7912C444.46 27.0724 444.806 27.4673 445.053 27.9759C445.303 28.4844 445.428 29.0795 445.428 29.7614C445.428 30.4375 445.303 31.0284 445.053 31.5341C444.806 32.0398 444.46 32.4332 444.013 32.7145C443.57 32.9957 443.053 33.1364 442.462 33.1364ZM442.462 32.233C442.911 32.233 443.281 32.1179 443.57 31.8878C443.86 31.6577 444.075 31.3551 444.214 30.9801C444.353 30.6051 444.423 30.1989 444.423 29.7614C444.423 29.3239 444.353 28.9162 444.214 28.5384C444.075 28.1605 443.86 27.8551 443.57 27.6222C443.281 27.3892 442.911 27.2727 442.462 27.2727C442.013 27.2727 441.644 27.3892 441.354 27.6222C441.065 27.8551 440.85 28.1605 440.711 28.5384C440.572 28.9162 440.502 29.3239 440.502 29.7614C440.502 30.1989 440.572 30.6051 440.711 30.9801C440.85 31.3551 441.065 31.6577 441.354 31.8878C441.644 32.1179 442.013 32.233 442.462 32.233ZM449.435 33.1364C448.89 33.1364 448.408 32.9986 447.99 32.723C447.573 32.4446 447.246 32.0526 447.01 31.5469C446.775 31.0384 446.657 30.4375 446.657 29.7443C446.657 29.0568 446.775 28.4602 447.01 27.9545C447.246 27.4489 447.574 27.0582 447.995 26.7827C448.415 26.5071 448.901 26.3693 449.452 26.3693C449.878 26.3693 450.215 26.4403 450.462 26.5824C450.712 26.7216 450.902 26.8807 451.033 27.0597C451.167 27.2358 451.27 27.3807 451.344 27.4943H451.429V24.2727H452.435V33H451.463V31.9943H451.344C451.27 32.1136 451.165 32.2642 451.029 32.446C450.892 32.625 450.698 32.7855 450.445 32.9276C450.192 33.0668 449.855 33.1364 449.435 33.1364ZM449.571 32.233C449.975 32.233 450.316 32.1278 450.594 31.9176C450.873 31.7045 451.084 31.4105 451.229 31.0355C451.374 30.6577 451.446 30.2216 451.446 29.7273C451.446 29.2386 451.375 28.8111 451.233 28.4446C451.091 28.0753 450.881 27.7884 450.603 27.5838C450.324 27.3764 449.98 27.2727 449.571 27.2727C449.145 27.2727 448.79 27.3821 448.506 27.6009C448.225 27.8168 448.013 28.1108 447.871 28.483C447.732 28.8523 447.662 29.267 447.662 29.7273C447.662 30.1932 447.733 30.6165 447.875 30.9972C448.02 31.375 448.233 31.6761 448.515 31.9006C448.799 32.1222 449.151 32.233 449.571 32.233ZM458.542 30.3239V26.4545H459.547V33H458.542V31.892H458.473C458.32 32.2244 458.081 32.5071 457.757 32.7401C457.434 32.9702 457.025 33.0852 456.53 33.0852C456.121 33.0852 455.757 32.9957 455.439 32.8168C455.121 32.6349 454.871 32.3622 454.689 31.9986C454.507 31.6321 454.417 31.1705 454.417 30.6136V26.4545H455.422V30.5455C455.422 31.0227 455.556 31.4034 455.823 31.6875C456.093 31.9716 456.436 32.1136 456.854 32.1136C457.104 32.1136 457.358 32.0497 457.617 31.9219C457.878 31.794 458.097 31.598 458.273 31.3338C458.452 31.0696 458.542 30.733 458.542 30.3239ZM464.048 33.1364C463.435 33.1364 462.906 32.9915 462.463 32.7017C462.02 32.4119 461.679 32.0128 461.44 31.5043C461.202 30.9957 461.082 30.4148 461.082 29.7614C461.082 29.0966 461.205 28.5099 461.449 28.0014C461.696 27.4901 462.04 27.0909 462.48 26.804C462.923 26.5142 463.44 26.3693 464.031 26.3693C464.491 26.3693 464.906 26.4545 465.276 26.625C465.645 26.7955 465.947 27.0341 466.183 27.3409C466.419 27.6477 466.565 28.0057 466.622 28.4148H465.616C465.54 28.1165 465.369 27.8523 465.105 27.6222C464.844 27.3892 464.491 27.2727 464.048 27.2727C463.656 27.2727 463.313 27.375 463.017 27.5795C462.724 27.7812 462.496 28.0668 462.331 28.4361C462.169 28.8026 462.088 29.233 462.088 29.7273C462.088 30.233 462.168 30.6733 462.327 31.0483C462.489 31.4233 462.716 31.7145 463.009 31.9219C463.304 32.1293 463.651 32.233 464.048 32.233C464.31 32.233 464.547 32.1875 464.76 32.0966C464.973 32.0057 465.153 31.875 465.301 31.7045C465.449 31.5341 465.554 31.3295 465.616 31.0909H466.622C466.565 31.4773 466.425 31.8253 466.2 32.1349C465.979 32.4418 465.685 32.6861 465.318 32.8679C464.955 33.0469 464.531 33.1364 464.048 33.1364ZM470.939 26.4545V27.3068H467.547V26.4545H470.939ZM468.536 24.8864H469.541V31.125C469.541 31.4091 469.582 31.6222 469.665 31.7642C469.75 31.9034 469.858 31.9972 469.989 32.0455C470.122 32.0909 470.263 32.1136 470.411 32.1136C470.521 32.1136 470.612 32.108 470.683 32.0966C470.754 32.0824 470.811 32.071 470.854 32.0625L471.058 32.9659C470.99 32.9915 470.895 33.017 470.773 33.0426C470.651 33.071 470.496 33.0852 470.308 33.0852C470.024 33.0852 469.746 33.0241 469.473 32.902C469.203 32.7798 468.979 32.5938 468.8 32.3438C468.624 32.0938 468.536 31.7784 468.536 31.3977V24.8864Z" fill="#667085"/>
<path d="M433.918 45.4545V60H431.716V47.6562H431.631L428.151 49.929V47.8267L431.78 45.4545H433.918ZM438.44 60.1349C438.052 60.1349 437.718 59.9976 437.439 59.723C437.159 59.4437 437.02 59.1075 437.02 58.7145C437.02 58.3262 437.159 57.9948 437.439 57.7202C437.718 57.4408 438.052 57.3011 438.44 57.3011C438.828 57.3011 439.162 57.4408 439.441 57.7202C439.721 57.9948 439.86 58.3262 439.86 58.7145C439.86 58.9749 439.794 59.214 439.662 59.4318C439.534 59.6449 439.363 59.8153 439.15 59.9432C438.937 60.071 438.7 60.1349 438.44 60.1349ZM447.243 60.1989C446.353 60.1989 445.553 60.0284 444.843 59.6875C444.137 59.3419 443.574 58.8684 443.152 58.267C442.731 57.6657 442.506 56.9792 442.478 56.2074H444.608C444.66 56.8324 444.937 57.3461 445.439 57.7486C445.941 58.151 446.542 58.3523 447.243 58.3523C447.802 58.3523 448.297 58.2244 448.728 57.9688C449.163 57.7083 449.504 57.3509 449.75 56.8963C450.001 56.4418 450.127 55.9233 450.127 55.3409C450.127 54.7491 449.999 54.2211 449.743 53.7571C449.488 53.2931 449.135 52.9285 448.685 52.6634C448.24 52.3982 447.729 52.2633 447.151 52.2585C446.711 52.2585 446.268 52.3343 445.823 52.4858C445.378 52.6373 445.018 52.8362 444.743 53.0824L442.733 52.7841L443.55 45.4545H451.547V47.3366H445.375L444.914 51.4062H444.999C445.283 51.1316 445.659 50.902 446.128 50.7173C446.602 50.5327 447.108 50.4403 447.648 50.4403C448.533 50.4403 449.322 50.651 450.013 51.0724C450.709 51.4938 451.256 52.0691 451.654 52.7983C452.056 53.5227 452.255 54.3561 452.25 55.2983C452.255 56.2405 452.042 57.081 451.611 57.8196C451.185 58.5582 450.593 59.1406 449.836 59.5668C449.083 59.9882 448.219 60.1989 447.243 60.1989ZM454.539 57.1591V55.3835L460.825 45.4545H462.224V48.0682H461.336L456.84 55.1847V55.2983H465.455V57.1591H454.539ZM461.435 60V56.6193L461.45 55.8097V45.4545H463.531V60H461.435ZM469.912 56.2997L469.898 53.7074H470.267L474.614 49.0909H477.156L472.199 54.3466H471.865L469.912 56.2997ZM467.959 60V45.4545H470.082V60H467.959ZM474.848 60L470.942 54.8153L472.405 53.331L477.455 60H474.848Z" fill="black"/>
<g filter="url(#filter3_ddd_13_5760)">
<rect x="552.5" y="24" width="40" height="40" rx="5" fill="#16B1FF"/>
<path d="M572.3 42.9C570.03 42.31 569.3 41.7 569.3 40.75C569.3 39.66 570.31 38.9 572 38.9C573.78 38.9 574.44 39.75 574.5 41H576.71C576.64 39.28 575.59 37.7 573.5 37.19V35H570.5V37.16C568.56 37.58 567 38.84 567 40.77C567 43.08 568.91 44.23 571.7 44.9C574.2 45.5 574.7 46.38 574.7 47.31C574.7 48 574.21 49.1 572 49.1C569.94 49.1 569.13 48.18 569.02 47H566.82C566.94 49.19 568.58 50.42 570.5 50.83V53H573.5V50.85C575.45 50.48 577 49.35 577 47.3C577 44.46 574.57 43.49 572.3 42.9Z" fill="white"/>
</g>
<path d="M605.557 33V24.2727H608.506C609.188 24.2727 609.747 24.3892 610.185 24.6222C610.622 24.8523 610.946 25.169 611.156 25.5724C611.366 25.9759 611.472 26.4347 611.472 26.9489C611.472 27.4631 611.366 27.919 611.156 28.3168C610.946 28.7145 610.624 29.027 610.189 29.2543C609.754 29.4787 609.199 29.5909 608.523 29.5909H606.136V28.6364H608.489C608.955 28.6364 609.33 28.5682 609.614 28.4318C609.901 28.2955 610.108 28.1023 610.236 27.8523C610.366 27.5994 610.432 27.2983 610.432 26.9489C610.432 26.5994 610.366 26.294 610.236 26.0327C610.105 25.7713 609.896 25.5696 609.609 25.4276C609.322 25.2827 608.943 25.2102 608.472 25.2102H606.614V33H605.557ZM609.665 29.0795L611.812 33H610.585L608.472 29.0795H609.665ZM615.77 33.1364C615.14 33.1364 614.596 32.9972 614.138 32.7188C613.684 32.4375 613.333 32.0455 613.086 31.5426C612.841 31.0369 612.719 30.4489 612.719 29.7784C612.719 29.108 612.841 28.517 613.086 28.0057C613.333 27.4915 613.676 27.0909 614.117 26.804C614.56 26.5142 615.077 26.3693 615.668 26.3693C616.009 26.3693 616.346 26.4261 616.678 26.5398C617.01 26.6534 617.313 26.8381 617.586 27.0938C617.858 27.3466 618.076 27.6818 618.238 28.0994C618.4 28.517 618.48 29.0312 618.48 29.642V30.0682H613.435V29.1989H617.458C617.458 28.8295 617.384 28.5 617.236 28.2102C617.091 27.9205 616.884 27.6918 616.614 27.5241C616.347 27.3565 616.032 27.2727 615.668 27.2727C615.267 27.2727 614.921 27.3722 614.628 27.571C614.338 27.767 614.115 28.0227 613.959 28.3381C613.803 28.6534 613.725 28.9915 613.725 29.3523V29.9318C613.725 30.4261 613.81 30.8452 613.98 31.1889C614.154 31.5298 614.394 31.7898 614.701 31.9688C615.007 32.1449 615.364 32.233 615.77 32.233C616.034 32.233 616.273 32.196 616.486 32.1222C616.702 32.0455 616.888 31.9318 617.044 31.7812C617.201 31.6278 617.321 31.4375 617.407 31.2102L618.378 31.483C618.276 31.8125 618.104 32.1023 617.863 32.3523C617.621 32.5994 617.323 32.7926 616.968 32.9318C616.613 33.0682 616.213 33.1364 615.77 33.1364ZM625.163 26.4545L622.743 33H621.72L619.3 26.4545H620.391L622.197 31.6705H622.266L624.072 26.4545H625.163ZM629.001 33.1364C628.37 33.1364 627.826 32.9972 627.369 32.7188C626.914 32.4375 626.563 32.0455 626.316 31.5426C626.072 31.0369 625.95 30.4489 625.95 29.7784C625.95 29.108 626.072 28.517 626.316 28.0057C626.563 27.4915 626.907 27.0909 627.347 26.804C627.79 26.5142 628.308 26.3693 628.898 26.3693C629.239 26.3693 629.576 26.4261 629.908 26.5398C630.241 26.6534 630.543 26.8381 630.816 27.0938C631.089 27.3466 631.306 27.6818 631.468 28.0994C631.63 28.517 631.711 29.0312 631.711 29.642V30.0682H626.665V29.1989H630.688C630.688 28.8295 630.614 28.5 630.467 28.2102C630.322 27.9205 630.114 27.6918 629.844 27.5241C629.577 27.3565 629.262 27.2727 628.898 27.2727C628.498 27.2727 628.151 27.3722 627.859 27.571C627.569 27.767 627.346 28.0227 627.19 28.3381C627.033 28.6534 626.955 28.9915 626.955 29.3523V29.9318C626.955 30.4261 627.04 30.8452 627.211 31.1889C627.384 31.5298 627.624 31.7898 627.931 31.9688C628.238 32.1449 628.594 32.233 629.001 32.233C629.265 32.233 629.504 32.196 629.717 32.1222C629.933 32.0455 630.119 31.9318 630.275 31.7812C630.431 31.6278 630.552 31.4375 630.637 31.2102L631.609 31.483C631.506 31.8125 631.335 32.1023 631.093 32.3523C630.852 32.5994 630.553 32.7926 630.198 32.9318C629.843 33.0682 629.444 33.1364 629.001 33.1364ZM634.246 29.0625V33H633.241V26.4545H634.212V27.4773H634.298C634.451 27.1449 634.684 26.8778 634.996 26.6761C635.309 26.4716 635.712 26.3693 636.207 26.3693C636.65 26.3693 637.038 26.4602 637.37 26.642C637.702 26.821 637.961 27.0938 638.146 27.4602C638.33 27.8239 638.423 28.2841 638.423 28.8409V33H637.417V28.9091C637.417 28.3949 637.283 27.9943 637.016 27.7074C636.749 27.4176 636.383 27.2727 635.917 27.2727C635.596 27.2727 635.309 27.3423 635.056 27.4815C634.806 27.6207 634.609 27.8239 634.464 28.0909C634.319 28.358 634.246 28.6818 634.246 29.0625ZM644.385 30.3239V26.4545H645.391V33H644.385V31.892H644.317C644.164 32.2244 643.925 32.5071 643.601 32.7401C643.277 32.9702 642.868 33.0852 642.374 33.0852C641.965 33.0852 641.601 32.9957 641.283 32.8168C640.965 32.6349 640.715 32.3622 640.533 31.9986C640.351 31.6321 640.26 31.1705 640.26 30.6136V26.4545H641.266V30.5455C641.266 31.0227 641.4 31.4034 641.667 31.6875C641.936 31.9716 642.28 32.1136 642.698 32.1136C642.948 32.1136 643.202 32.0497 643.461 31.9219C643.722 31.794 643.941 31.598 644.117 31.3338C644.296 31.0696 644.385 30.733 644.385 30.3239ZM649.977 33.1364C649.347 33.1364 648.803 32.9972 648.345 32.7188C647.891 32.4375 647.54 32.0455 647.293 31.5426C647.048 31.0369 646.926 30.4489 646.926 29.7784C646.926 29.108 647.048 28.517 647.293 28.0057C647.54 27.4915 647.884 27.0909 648.324 26.804C648.767 26.5142 649.284 26.3693 649.875 26.3693C650.216 26.3693 650.553 26.4261 650.885 26.5398C651.217 26.6534 651.52 26.8381 651.793 27.0938C652.065 27.3466 652.283 27.6818 652.445 28.0994C652.607 28.517 652.688 29.0312 652.688 29.642V30.0682H647.642V29.1989H651.665C651.665 28.8295 651.591 28.5 651.443 28.2102C651.298 27.9205 651.091 27.6918 650.821 27.5241C650.554 27.3565 650.239 27.2727 649.875 27.2727C649.474 27.2727 649.128 27.3722 648.835 27.571C648.545 27.767 648.322 28.0227 648.166 28.3381C648.01 28.6534 647.932 28.9915 647.932 29.3523V29.9318C647.932 30.4261 648.017 30.8452 648.188 31.1889C648.361 31.5298 648.601 31.7898 648.908 31.9688C649.214 32.1449 649.571 32.233 649.977 32.233C650.241 32.233 650.48 32.196 650.693 32.1222C650.909 32.0455 651.095 31.9318 651.251 31.7812C651.408 31.6278 651.528 31.4375 651.614 31.2102L652.585 31.483C652.483 31.8125 652.311 32.1023 652.07 32.3523C651.828 32.5994 651.53 32.7926 651.175 32.9318C650.82 33.0682 650.42 33.1364 649.977 33.1364Z" fill="#667085"/>
<path d="M610.388 61.8182V43.6364H611.553V61.8182H610.388ZM614.031 49.2756C613.955 48.6032 613.643 48.0824 613.094 47.7131C612.545 47.339 611.853 47.152 611.02 47.152C610.423 47.152 609.907 47.2467 609.472 47.4361C609.036 47.6207 608.697 47.8764 608.456 48.2031C608.219 48.5251 608.101 48.892 608.101 49.304C608.101 49.6496 608.181 49.9479 608.342 50.1989C608.508 50.4498 608.723 50.6605 608.989 50.831C609.259 50.9967 609.547 51.1364 609.855 51.25C610.163 51.3589 610.459 51.4489 610.743 51.5199L612.163 51.8892C612.627 52.0028 613.103 52.1567 613.591 52.3509C614.079 52.545 614.531 52.8007 614.947 53.1179C615.364 53.4351 615.7 53.8281 615.956 54.2969C616.216 54.7656 616.347 55.3267 616.347 55.9801C616.347 56.804 616.134 57.5355 615.707 58.1747C615.286 58.8139 614.673 59.3182 613.868 59.6875C613.068 60.0568 612.099 60.2415 610.963 60.2415C609.874 60.2415 608.932 60.0687 608.136 59.723C607.341 59.3774 606.718 58.8873 606.268 58.2528C605.819 57.6136 605.57 56.8561 605.523 55.9801H607.724C607.767 56.5057 607.938 56.9437 608.236 57.294C608.539 57.6397 608.925 57.8977 609.393 58.0682C609.867 58.2339 610.385 58.3168 610.949 58.3168C611.569 58.3168 612.121 58.2197 612.604 58.0256C613.091 57.8267 613.475 57.5521 613.754 57.2017C614.034 56.8466 614.173 56.4323 614.173 55.9588C614.173 55.5279 614.05 55.1752 613.804 54.9006C613.563 54.6259 613.233 54.3987 612.817 54.2188C612.405 54.0388 611.938 53.8802 611.418 53.7429L609.699 53.2741C608.534 52.9569 607.611 52.4905 606.929 51.875C606.252 51.2595 605.913 50.4451 605.913 49.4318C605.913 48.5937 606.141 47.8622 606.595 47.2372C607.05 46.6122 607.665 46.1269 608.442 45.7812C609.218 45.4309 610.094 45.2557 611.07 45.2557C612.054 45.2557 612.923 45.4285 613.676 45.7741C614.434 46.1198 615.03 46.5956 615.466 47.2017C615.902 47.803 616.129 48.4943 616.148 49.2756H614.031ZM623.685 60.1989C622.667 60.1989 621.767 60.0237 620.986 59.6733C620.21 59.3229 619.601 58.84 619.161 58.2244C618.721 57.6089 618.503 56.9081 618.507 56.1222C618.503 55.5066 618.628 54.9408 618.884 54.4247C619.144 53.9039 619.497 53.4706 619.942 53.125C620.387 52.7746 620.884 52.5521 621.434 52.4574V52.3722C620.709 52.197 620.129 51.8087 619.694 51.2074C619.258 50.6061 619.042 49.9148 619.047 49.1335C619.042 48.3902 619.239 47.7273 619.637 47.1449C620.039 46.5578 620.591 46.0961 621.292 45.7599C621.992 45.4238 622.79 45.2557 623.685 45.2557C624.57 45.2557 625.361 45.4261 626.057 45.767C626.758 46.1032 627.31 46.5649 627.712 47.152C628.114 47.7344 628.318 48.3949 628.323 49.1335C628.318 49.9148 628.096 50.6061 627.655 51.2074C627.215 51.8087 626.642 52.197 625.936 52.3722V52.4574C626.481 52.5521 626.971 52.7746 627.407 53.125C627.847 53.4706 628.197 53.9039 628.458 54.4247C628.723 54.9408 628.858 55.5066 628.863 56.1222C628.858 56.9081 628.635 57.6089 628.195 58.2244C627.755 58.84 627.144 59.3229 626.363 59.6733C625.586 60.0237 624.694 60.1989 623.685 60.1989ZM623.685 58.402C624.286 58.402 624.807 58.3026 625.248 58.1037C625.688 57.9001 626.029 57.6184 626.27 57.2585C626.512 56.8939 626.635 56.4678 626.64 55.9801C626.635 55.4735 626.502 55.026 626.242 54.6378C625.986 54.2495 625.638 53.9441 625.198 53.7216C624.757 53.4991 624.253 53.3878 623.685 53.3878C623.112 53.3878 622.603 53.4991 622.158 53.7216C621.713 53.9441 621.363 54.2495 621.107 54.6378C620.851 55.026 620.726 55.4735 620.73 55.9801C620.726 56.4678 620.842 56.8939 621.078 57.2585C621.32 57.6184 621.663 57.9001 622.108 58.1037C622.553 58.3026 623.079 58.402 623.685 58.402ZM623.685 51.6335C624.168 51.6335 624.596 51.5365 624.971 51.3423C625.345 51.1482 625.638 50.8783 625.851 50.5327C626.069 50.187 626.18 49.7822 626.185 49.3182C626.18 48.8636 626.071 48.4659 625.858 48.125C625.65 47.7841 625.359 47.5213 624.985 47.3366C624.611 47.1473 624.177 47.0526 623.685 47.0526C623.183 47.0526 622.743 47.1473 622.364 47.3366C621.99 47.5213 621.699 47.7841 621.49 48.125C621.282 48.4659 621.18 48.8636 621.185 49.3182C621.18 49.7822 621.284 50.187 621.498 50.5327C621.711 50.8783 622.004 51.1482 622.378 51.3423C622.757 51.5365 623.193 51.6335 623.685 51.6335ZM636.322 60.1989C635.304 60.1989 634.404 60.0237 633.623 59.6733C632.846 59.3229 632.238 58.84 631.798 58.2244C631.357 57.6089 631.139 56.9081 631.144 56.1222C631.139 55.5066 631.265 54.9408 631.521 54.4247C631.781 53.9039 632.134 53.4706 632.579 53.125C633.024 52.7746 633.521 52.5521 634.07 52.4574V52.3722C633.346 52.197 632.766 51.8087 632.33 51.2074C631.895 50.6061 631.679 49.9148 631.684 49.1335C631.679 48.3902 631.876 47.7273 632.273 47.1449C632.676 46.5578 633.228 46.0961 633.928 45.7599C634.629 45.4238 635.427 45.2557 636.322 45.2557C637.207 45.2557 637.998 45.4261 638.694 45.767C639.395 46.1032 639.946 46.5649 640.349 47.152C640.751 47.7344 640.955 48.3949 640.96 49.1335C640.955 49.9148 640.732 50.6061 640.292 51.2074C639.852 51.8087 639.279 52.197 638.573 52.3722V52.4574C639.118 52.5521 639.608 52.7746 640.043 53.125C640.484 53.4706 640.834 53.9039 641.094 54.4247C641.36 54.9408 641.495 55.5066 641.499 56.1222C641.495 56.9081 641.272 57.6089 640.832 58.2244C640.391 58.84 639.781 59.3229 638.999 59.6733C638.223 60.0237 637.33 60.1989 636.322 60.1989ZM636.322 58.402C636.923 58.402 637.444 58.3026 637.884 58.1037C638.325 57.9001 638.665 57.6184 638.907 57.2585C639.148 56.8939 639.272 56.4678 639.276 55.9801C639.272 55.4735 639.139 55.026 638.879 54.6378C638.623 54.2495 638.275 53.9441 637.835 53.7216C637.394 53.4991 636.89 53.3878 636.322 53.3878C635.749 53.3878 635.24 53.4991 634.795 53.7216C634.35 53.9441 633.999 54.2495 633.744 54.6378C633.488 55.026 633.362 55.4735 633.367 55.9801C633.362 56.4678 633.478 56.8939 633.715 57.2585C633.957 57.6184 634.3 57.9001 634.745 58.1037C635.19 58.3026 635.716 58.402 636.322 58.402ZM636.322 51.6335C636.805 51.6335 637.233 51.5365 637.607 51.3423C637.981 51.1482 638.275 50.8783 638.488 50.5327C638.706 50.187 638.817 49.7822 638.822 49.3182C638.817 48.8636 638.708 48.4659 638.495 48.125C638.287 47.7841 637.996 47.5213 637.621 47.3366C637.247 47.1473 636.814 47.0526 636.322 47.0526C635.82 47.0526 635.379 47.1473 635.001 47.3366C634.627 47.5213 634.335 47.7841 634.127 48.125C633.919 48.4659 633.817 48.8636 633.822 49.3182C633.817 49.7822 633.921 50.187 634.134 50.5327C634.347 50.8783 634.641 51.1482 635.015 51.3423C635.394 51.5365 635.829 51.6335 636.322 51.6335ZM646.025 56.2997L646.011 53.7074H646.38L650.727 49.0909H653.27L648.312 54.3466H647.978L646.025 56.2997ZM644.072 60V45.4545H646.196V60H644.072ZM650.961 60L647.055 54.8153L648.518 53.331L653.568 60H650.961Z" fill="black"/>
<defs>
<filter id="filter0_ddd_13_5760" x="17" y="22" width="46" height="46" filterUnits="userSpaceOnUse" color-interpolation-filters="sRGB">
<feFlood flood-opacity="0" result="BackgroundImageFix"/>
<feColorMatrix in="SourceAlpha" type="matrix" values="0 0 0 0 0 0 0 0 0 0 0 0 0 0 0 0 0 0 127 0" result="hardAlpha"/>
<feOffset dy="1"/>
<feGaussianBlur stdDeviation="1.5"/>
<feColorMatrix type="matrix" values="0 0 0 0 0.227451 0 0 0 0 0.207843 0 0 0 0 0.254902 0 0 0 0.12 0"/>
<feBlend mode="normal" in2="BackgroundImageFix" result="effect1_dropShadow_13_5760"/>
<feColorMatrix in="SourceAlpha" type="matrix" values="0 0 0 0 0 0 0 0 0 0 0 0 0 0 0 0 0 0 127 0" result="hardAlpha"/>
<feOffset dy="1"/>
<feGaussianBlur stdDeviation="0.5"/>
<feColorMatrix type="matrix" values="0 0 0 0 0.227451 0 0 0 0 0.207843 0 0 0 0 0.254902 0 0 0 0.14 0"/>
<feBlend mode="normal" in2="effect1_dropShadow_13_5760" result="effect2_dropShadow_13_5760"/>
<feColorMatrix in="SourceAlpha" type="matrix" values="0 0 0 0 0 0 0 0 0 0 0 0 0 0 0 0 0 0 127 0" result="hardAlpha"/>
<feMorphology radius="1" operator="erode" in="SourceAlpha" result="effect3_dropShadow_13_5760"/>
<feOffset dy="2"/>
<feGaussianBlur stdDeviation="0.5"/>
<feColorMatrix type="matrix" values="0 0 0 0 0.227451 0 0 0 0 0.207843 0 0 0 0 0.254902 0 0 0 0.2 0"/>
<feBlend mode="normal" in2="effect2_dropShadow_13_5760" result="effect3_dropShadow_13_5760"/>
<feBlend mode="normal" in="SourceGraphic" in2="effect3_dropShadow_13_5760" result="shape"/>
</filter>
<filter id="filter1_ddd_13_5760" x="194.5" y="22" width="46" height="46" filterUnits="userSpaceOnUse" color-interpolation-filters="sRGB">
<feFlood flood-opacity="0" result="BackgroundImageFix"/>
<feColorMatrix in="SourceAlpha" type="matrix" values="0 0 0 0 0 0 0 0 0 0 0 0 0 0 0 0 0 0 127 0" result="hardAlpha"/>
<feOffset dy="1"/>
<feGaussianBlur stdDeviation="1.5"/>
<feColorMatrix type="matrix" values="0 0 0 0 0.227451 0 0 0 0 0.207843 0 0 0 0 0.254902 0 0 0 0.12 0"/>
<feBlend mode="normal" in2="BackgroundImageFix" result="effect1_dropShadow_13_5760"/>
<feColorMatrix in="SourceAlpha" type="matrix" values="0 0 0 0 0 0 0 0 0 0 0 0 0 0 0 0 0 0 127 0" result="hardAlpha"/>
<feOffset dy="1"/>
<feGaussianBlur stdDeviation="0.5"/>
<feColorMatrix type="matrix" values="0 0 0 0 0.227451 0 0 0 0 0.207843 0 0 0 0 0.254902 0 0 0 0.14 0"/>
<feBlend mode="normal" in2="effect1_dropShadow_13_5760" result="effect2_dropShadow_13_5760"/>
<feColorMatrix in="SourceAlpha" type="matrix" values="0 0 0 0 0 0 0 0 0 0 0 0 0 0 0 0 0 0 127 0" result="hardAlpha"/>
<feMorphology radius="1" operator="erode" in="SourceAlpha" result="effect3_dropShadow_13_5760"/>
<feOffset dy="2"/>
<feGaussianBlur stdDeviation="0.5"/>
<feColorMatrix type="matrix" values="0 0 0 0 0.227451 0 0 0 0 0.207843 0 0 0 0 0.254902 0 0 0 0.2 0"/>
<feBlend mode="normal" in2="effect2_dropShadow_13_5760" result="effect3_dropShadow_13_5760"/>
<feBlend mode="normal" in="SourceGraphic" in2="effect3_dropShadow_13_5760" result="shape"/>
</filter>
<filter id="filter2_ddd_13_5760" x="372" y="22" width="46" height="46" filterUnits="userSpaceOnUse" color-interpolation-filters="sRGB">
<feFlood flood-opacity="0" result="BackgroundImageFix"/>
<feColorMatrix in="SourceAlpha" type="matrix" values="0 0 0 0 0 0 0 0 0 0 0 0 0 0 0 0 0 0 127 0" result="hardAlpha"/>
<feOffset dy="1"/>
<feGaussianBlur stdDeviation="1.5"/>
<feColorMatrix type="matrix" values="0 0 0 0 0.227451 0 0 0 0 0.207843 0 0 0 0 0.254902 0 0 0 0.12 0"/>
<feBlend mode="normal" in2="BackgroundImageFix" result="effect1_dropShadow_13_5760"/>
<feColorMatrix in="SourceAlpha" type="matrix" values="0 0 0 0 0 0 0 0 0 0 0 0 0 0 0 0 0 0 127 0" result="hardAlpha"/>
<feOffset dy="1"/>
<feGaussianBlur stdDeviation="0.5"/>
<feColorMatrix type="matrix" values="0 0 0 0 0.227451 0 0 0 0 0.207843 0 0 0 0 0.254902 0 0 0 0.14 0"/>
<feBlend mode="normal" in2="effect1_dropShadow_13_5760" result="effect2_dropShadow_13_5760"/>
<feColorMatrix in="SourceAlpha" type="matrix" values="0 0 0 0 0 0 0 0 0 0 0 0 0 0 0 0 0 0 127 0" result="hardAlpha"/>
<feMorphology radius="1" operator="erode" in="SourceAlpha" result="effect3_dropShadow_13_5760"/>
<feOffset dy="2"/>
<feGaussianBlur stdDeviation="0.5"/>
<feColorMatrix type="matrix" values="0 0 0 0 0.227451 0 0 0 0 0.207843 0 0 0 0 0.254902 0 0 0 0.2 0"/>
<feBlend mode="normal" in2="effect2_dropShadow_13_5760" result="effect3_dropShadow_13_5760"/>
<feBlend mode="normal" in="SourceGraphic" in2="effect3_dropShadow_13_5760" result="shape"/>
</filter>
<filter id="filter3_ddd_13_5760" x="549.5" y="22" width="46" height="46" filterUnits="userSpaceOnUse" color-interpolation-filters="sRGB">
<feFlood flood-opacity="0" result="BackgroundImageFix"/>
<feColorMatrix in="SourceAlpha" type="matrix" values="0 0 0 0 0 0 0 0 0 0 0 0 0 0 0 0 0 0 127 0" result="hardAlpha"/>
<feOffset dy="1"/>
<feGaussianBlur stdDeviation="1.5"/>
<feColorMatrix type="matrix" values="0 0 0 0 0.227451 0 0 0 0 0.207843 0 0 0 0 0.254902 0 0 0 0.12 0"/>
<feBlend mode="normal" in2="BackgroundImageFix" result="effect1_dropShadow_13_5760"/>
<feColorMatrix in="SourceAlpha" type="matrix" values="0 0 0 0 0 0 0 0 0 0 0 0 0 0 0 0 0 0 127 0" result="hardAlpha"/>
<feOffset dy="1"/>
<feGaussianBlur stdDeviation="0.5"/>
<feColorMatrix type="matrix" values="0 0 0 0 0.227451 0 0 0 0 0.207843 0 0 0 0 0.254902 0 0 0 0.14 0"/>
<feBlend mode="normal" in2="effect1_dropShadow_13_5760" result="effect2_dropShadow_13_5760"/>
<feColorMatrix in="SourceAlpha" type="matrix" values="0 0 0 0 0 0 0 0 0 0 0 0 0 0 0 0 0 0 127 0" result="hardAlpha"/>
<feMorphology radius="1" operator="erode" in="SourceAlpha" result="effect3_dropShadow_13_5760"/>
<feOffset dy="2"/>
<feGaussianBlur stdDeviation="0.5"/>
<feColorMatrix type="matrix" values="0 0 0 0 0.227451 0 0 0 0 0.207843 0 0 0 0 0.254902 0 0 0 0.2 0"/>
<feBlend mode="normal" in2="effect2_dropShadow_13_5760" result="effect3_dropShadow_13_5760"/>
<feBlend mode="normal" in="SourceGraphic" in2="effect3_dropShadow_13_5760" result="shape"/>
</filter>
</defs>
</svg>
